<svg version="1.1" id="Layer_1" xmlns="http://www.w3.org/2000/svg" xmlns:xlink="http://www.w3.org/1999/xlink" x="0px" y="0px"
	 width="100%" viewBox="0 0 328 150" enable-background="new 0 0 328 150" xml:space="preserve">
<path fill="#FEFEFE" opacity="1.000000" stroke="none" 
	d="
M235.000000,151.000000 
	C156.666672,151.000000 78.833351,151.000000 1.000021,151.000000 
	C1.000014,101.000015 1.000014,51.000031 1.000007,1.000034 
	C110.333305,1.000023 219.666611,1.000023 328.999939,1.000011 
	C328.999939,50.999966 328.999939,100.999931 328.999969,150.999939 
	C297.833344,151.000000 266.666656,151.000000 235.000000,151.000000 
M185.840958,80.898605 
	C187.452682,81.470657 189.064423,82.042717 190.985626,82.724617 
	C190.985626,85.462799 190.980362,88.441002 190.987076,91.419167 
	C190.994217,94.580605 190.886124,97.748627 191.050613,100.902191 
	C191.497589,109.471687 196.380753,113.703293 204.538727,111.749458 
	C208.147659,110.885124 211.308914,108.151649 214.957855,107.090111 
	C214.957855,108.330467 214.957855,109.570824 214.957855,110.810684 
	C220.356110,110.810684 225.123840,110.810684 230.103790,110.810684 
	C230.103790,108.832619 230.103790,107.052788 230.103790,105.143875 
	C228.743774,104.998070 227.461792,104.860626 226.147141,104.719681 
	C228.619278,96.910530 228.619293,96.911041 236.416992,96.707947 
	C237.748108,96.673279 239.173431,96.316505 240.384781,96.678658 
	C241.722382,97.078552 243.641510,97.921036 243.924530,98.950806 
	C244.470581,100.937599 244.372726,103.264221 243.919922,105.312454 
	C243.540131,107.030373 242.275940,108.552788 241.090027,110.739441 
	C248.552673,110.739441 254.800629,110.739441 261.081970,110.739441 
	C261.081970,108.831581 261.081970,107.195404 261.081970,105.559227 
	C260.713959,105.750618 260.345947,105.942001 259.977936,106.133385 
	C258.747650,104.516266 257.152313,103.059151 256.359497,101.250290 
	C254.432343,96.853424 252.905884,92.282326 251.167618,87.800972 
	C247.654709,78.744537 244.108353,69.701080 240.792801,61.208199 
	C236.117325,59.699482 234.619293,61.640778 233.395996,65.219635 
	C229.589417,76.356270 225.620316,87.453217 221.175385,98.345665 
	C219.922226,101.416580 216.818253,103.732224 214.912796,105.616684 
	C213.981415,103.967888 213.050018,102.319092 212.661804,101.631859 
	C209.145889,102.916641 206.656662,103.826256 204.167419,104.735863 
	C203.255615,102.196449 201.777359,99.705757 201.553879,97.107147 
	C201.131973,92.201141 201.432022,87.233047 201.432022,82.064949 
	C204.594910,81.918953 207.191208,81.799110 210.005249,81.669220 
	C210.005249,79.625641 210.005249,77.866058 210.005249,75.691559 
	C207.191376,75.691559 204.589035,75.691559 201.639389,75.691559 
	C201.639389,72.331886 201.639389,69.381927 201.639389,65.684929 
	C199.365265,66.124626 196.895889,65.847954 195.873398,66.933769 
	C191.993942,71.053467 188.582764,75.614136 185.105927,79.231529 
	C179.893906,69.640518 174.602051,76.941620 169.324646,79.156830 
	C169.114700,77.784233 168.904770,76.411636 168.649551,74.742981 
	C163.633514,75.776398 159.021210,76.726639 154.485748,77.661049 
	C154.485748,79.440025 154.485748,81.035172 154.485748,82.829865 
	C156.099380,82.927872 157.475296,83.011444 158.912888,83.098763 
	C158.912888,89.019012 159.074081,94.509224 158.822372,99.980446 
	C158.738281,101.808289 157.707581,103.637566 156.910110,105.374596 
	C156.152939,107.023819 155.134903,108.553276 153.915039,110.689758 
	C161.216217,110.689758 167.282471,110.689758 173.272980,110.689758 
	C174.113098,106.978531 173.726196,104.395447 168.586731,105.033226 
	C170.966324,97.106133 165.412537,87.741379 173.460602,82.947380 
	C176.991394,84.111549 179.299026,85.548027 181.436890,85.328827 
	C182.760284,85.193138 183.825668,82.541092 185.840958,80.898605 
M115.017357,108.526459 
	C113.897446,106.914680 112.777534,105.302895 111.087341,102.870354 
	C110.827301,97.446281 110.870453,90.603180 110.069908,83.860245 
	C109.293686,77.322197 105.699982,74.485954 99.159966,74.865288 
	C95.796997,75.060341 92.495163,76.309532 88.720078,77.185822 
	C88.720078,70.966682 88.720078,64.579453 88.720078,57.741543 
	C83.531296,58.748760 78.905647,59.646667 74.205765,60.558983 
	C74.205765,62.327965 74.205765,64.084511 74.205765,65.799492 
	C75.878761,65.986000 77.314819,66.146103 78.582397,66.287415 
	C78.582397,77.223816 78.699638,87.876358 78.489799,98.522446 
	C78.444351,100.828529 77.343399,103.156296 76.505806,105.390541 
	C75.863640,107.103462 74.870819,108.684937 73.863548,110.658821 
	C81.210938,110.658821 87.113815,110.658821 92.879654,110.658821 
	C92.879654,108.694679 92.879654,107.082306 92.879654,105.343292 
	C91.462112,105.149284 90.240616,104.982109 89.008316,104.813454 
	C89.008316,98.984787 89.245102,93.492981 88.930565,88.032936 
	C88.694962,83.943115 90.533646,82.273773 94.237450,81.913383 
	C98.219124,81.525955 99.686798,84.098160 99.904243,87.334946 
	C100.226929,92.138588 100.186340,96.976677 100.056038,101.793495 
	C100.024284,102.967407 99.118423,104.160477 98.477089,105.264961 
	C97.539986,106.878845 96.478745,108.420662 94.821739,111.004829 
	C102.103989,111.004829 107.575859,111.057701 113.043861,110.936356 
	C113.709793,110.921570 114.354942,109.970032 115.017357,108.526459 
M151.336166,105.979469 
	C149.926331,105.486687 148.516495,104.993904 147.107498,104.501411 
	C147.107498,97.984718 147.305389,91.667992 147.049347,85.369713 
	C146.814438,79.590981 143.460159,76.040123 138.040634,75.084190 
	C130.384415,73.733734 122.272858,76.307365 120.119057,80.789513 
	C119.906555,81.231750 119.821861,81.737846 119.696678,82.219208 
	C118.880653,85.356865 119.456917,88.090874 122.911850,88.881096 
	C126.526161,89.707764 128.370804,87.787827 128.984741,84.123100 
	C129.209625,82.780632 130.809952,80.584946 131.628052,80.652519 
	C133.298813,80.790520 135.537369,81.821022 136.301819,83.181038 
	C137.238220,84.846970 136.904358,87.226891 137.095795,89.068138 
	C132.894211,90.187622 129.105927,90.817986 125.649864,92.250076 
	C123.315887,93.217201 120.897537,94.936707 119.495773,96.988426 
	C116.971939,100.682472 117.012253,104.900032 119.847664,108.586594 
	C122.918365,112.579041 127.237228,112.605751 131.617050,111.497208 
	C133.496780,111.021454 135.309799,109.241287 137.034302,109.394165 
	C141.645035,109.802933 146.191452,110.937286 151.141739,111.853317 
	C151.297989,109.387146 151.379608,108.098946 151.336166,105.979469 
M61.426445,74.986572 
	C60.098957,74.902969 58.771450,74.747063 57.443985,74.747391 
	C48.137318,74.749695 41.020443,80.668030 39.194855,89.885124 
	C37.397575,98.959282 41.447186,107.572105 48.974583,110.684921 
	C57.455948,114.192238 66.725029,111.309708 72.378693,103.093529 
	C71.361778,101.970459 70.286430,100.782860 69.249367,99.637535 
	C62.247929,105.724792 57.141994,106.697220 53.297474,103.086052 
	C49.213554,99.250015 48.144264,88.122116 51.970921,83.577667 
	C53.434212,81.839905 56.380939,81.351265 58.651657,80.293396 
	C59.410740,82.011940 60.542416,83.667137 60.847763,85.462837 
	C61.404358,88.736084 63.190052,90.257156 66.300911,89.859596 
	C69.740273,89.420067 71.057098,86.880966 70.714462,83.729660 
	C70.170845,78.730011 66.622314,76.420082 61.426445,74.986572 
M266.942657,61.925591 
	C262.242981,62.257519 265.137054,65.339935 264.601318,67.324249 
	C266.481079,67.733475 267.995117,68.063080 269.269989,68.340622 
	C269.269989,78.909882 269.395203,89.067963 269.164734,99.217964 
	C269.118408,101.257317 267.883789,103.350372 266.895630,105.262924 
	C266.057281,106.885468 264.783783,108.283203 262.968414,110.797623 
	C271.485962,110.797623 278.066437,110.797623 284.653107,110.797623 
	C284.653107,108.851463 284.653107,107.128044 284.653107,105.216248 
	C282.954926,105.099358 281.557587,105.003174 280.022339,104.897499 
	C280.022339,93.910057 279.919312,83.271690 280.126953,72.639397 
	C280.160309,70.931519 281.468811,69.186707 282.391052,67.575272 
	C283.329773,65.935051 284.519531,64.438499 286.260101,61.924889 
	C278.823334,61.924889 273.340820,61.924889 266.942657,61.925591 
z"/>
<path fill="#050505" opacity="1.000000" stroke="none" 
	d="
M115.013535,108.989548 
	C114.354942,109.970032 113.709793,110.921570 113.043861,110.936356 
	C107.575859,111.057701 102.103989,111.004829 94.821739,111.004829 
	C96.478745,108.420662 97.539986,106.878845 98.477089,105.264961 
	C99.118423,104.160477 100.024284,102.967407 100.056038,101.793495 
	C100.186340,96.976677 100.226929,92.138588 99.904243,87.334946 
	C99.686798,84.098160 98.219124,81.525955 94.237450,81.913383 
	C90.533646,82.273773 88.694962,83.943115 88.930565,88.032936 
	C89.245102,93.492981 89.008316,98.984787 89.008316,104.813454 
	C90.240616,104.982109 91.462112,105.149284 92.879654,105.343292 
	C92.879654,107.082306 92.879654,108.694679 92.879654,110.658821 
	C87.113815,110.658821 81.210938,110.658821 73.863548,110.658821 
	C74.870819,108.684937 75.863640,107.103462 76.505806,105.390541 
	C77.343399,103.156296 78.444351,100.828529 78.489799,98.522446 
	C78.699638,87.876358 78.582397,77.223816 78.582397,66.287415 
	C77.314819,66.146103 75.878761,65.986000 74.205765,65.799492 
	C74.205765,64.084511 74.205765,62.327965 74.205765,60.558983 
	C78.905647,59.646667 83.531296,58.748760 88.720078,57.741543 
	C88.720078,64.579453 88.720078,70.966682 88.720078,77.185822 
	C92.495163,76.309532 95.796997,75.060341 99.159966,74.865288 
	C105.699982,74.485954 109.293686,77.322197 110.069908,83.860245 
	C110.870453,90.603180 110.827301,97.446281 111.087341,102.870354 
	C112.777534,105.302895 113.897446,106.914680 115.013535,108.989548 
z"/>
<path fill="#060606" opacity="1.000000" stroke="none" 
	d="
M214.563171,106.394279 
	C216.818253,103.732224 219.922226,101.416580 221.175385,98.345665 
	C225.620316,87.453217 229.589417,76.356270 233.395996,65.219635 
	C234.619293,61.640778 236.117325,59.699482 240.792801,61.208199 
	C244.108353,69.701080 247.654709,78.744537 251.167618,87.800972 
	C252.905884,92.282326 254.432343,96.853424 256.359497,101.250290 
	C257.152313,103.059151 258.747650,104.516266 259.977936,106.133385 
	C260.345947,105.942001 260.713959,105.750618 261.081970,105.559227 
	C261.081970,107.195404 261.081970,108.831581 261.081970,110.739441 
	C254.800629,110.739441 248.552673,110.739441 241.090027,110.739441 
	C242.275940,108.552788 243.540131,107.030373 243.919922,105.312454 
	C244.372726,103.264221 244.470581,100.937599 243.924530,98.950806 
	C243.641510,97.921036 241.722382,97.078552 240.384781,96.678658 
	C239.173431,96.316505 237.748108,96.673279 236.416992,96.707947 
	C228.619293,96.911041 228.619278,96.910530 226.147141,104.719681 
	C227.461792,104.860626 228.743774,104.998070 230.103790,105.143875 
	C230.103790,107.052788 230.103790,108.832619 230.103790,110.810684 
	C225.123840,110.810684 220.356110,110.810684 214.957855,110.810684 
	C214.957855,109.570824 214.957855,108.330467 214.789795,106.711777 
	C214.621719,106.333450 214.563171,106.394279 214.563171,106.394279 
M233.790237,82.297432 
	C232.820297,85.077759 231.850357,87.858078 230.860687,90.694931 
	C234.456055,90.694931 237.655609,90.694931 241.139954,90.694931 
	C239.416962,85.727386 237.825836,81.140007 235.901688,75.592476 
	C235.057098,78.236366 234.528091,79.892349 233.790237,82.297432 
z"/>
<path fill="#050505" opacity="1.000000" stroke="none" 
	d="
M151.398682,106.395111 
	C151.379608,108.098946 151.297989,109.387146 151.141739,111.853317 
	C146.191452,110.937286 141.645035,109.802933 137.034302,109.394165 
	C135.309799,109.241287 133.496780,111.021454 131.617050,111.497208 
	C127.237228,112.605751 122.918365,112.579041 119.847664,108.586594 
	C117.012253,104.900032 116.971939,100.682472 119.495773,96.988426 
	C120.897537,94.936707 123.315887,93.217201 125.649864,92.250076 
	C129.105927,90.817986 132.894211,90.187622 137.095795,89.068138 
	C136.904358,87.226891 137.238220,84.846970 136.301819,83.181038 
	C135.537369,81.821022 133.298813,80.790520 131.628052,80.652519 
	C130.809952,80.584946 129.209625,82.780632 128.984741,84.123100 
	C128.370804,87.787827 126.526161,89.707764 122.911850,88.881096 
	C119.456917,88.090874 118.880653,85.356865 119.696678,82.219208 
	C119.821861,81.737846 119.906555,81.231750 120.119057,80.789513 
	C122.272858,76.307365 130.384415,73.733734 138.040634,75.084190 
	C143.460159,76.040123 146.814438,79.590981 147.049347,85.369713 
	C147.305389,91.667992 147.107498,97.984718 147.107498,104.501411 
	C148.516495,104.993904 149.926331,105.486687 151.398682,106.395111 
M128.915115,99.394333 
	C129.253342,100.958580 129.234650,103.607864 130.004196,103.861015 
	C131.602432,104.386780 134.628098,104.280815 135.256760,103.288116 
	C136.640213,101.103607 136.899857,98.207397 137.618164,95.601669 
	C137.155960,95.297607 136.693756,94.993538 136.231537,94.689468 
	C133.908524,96.043686 131.585510,97.397911 128.915115,99.394333 
z"/>
<path fill="#080808" opacity="1.000000" stroke="none" 
	d="
M61.813133,75.045319 
	C66.622314,76.420082 70.170845,78.730011 70.714462,83.729660 
	C71.057098,86.880966 69.740273,89.420067 66.300911,89.859596 
	C63.190052,90.257156 61.404358,88.736084 60.847763,85.462837 
	C60.542416,83.667137 59.410740,82.011940 58.651657,80.293396 
	C56.380939,81.351265 53.434212,81.839905 51.970921,83.577667 
	C48.144264,88.122116 49.213554,99.250015 53.297474,103.086052 
	C57.141994,106.697220 62.247929,105.724792 69.249367,99.637535 
	C70.286430,100.782860 71.361778,101.970459 72.378693,103.093529 
	C66.725029,111.309708 57.455948,114.192238 48.974583,110.684921 
	C41.447186,107.572105 37.397575,98.959282 39.194855,89.885124 
	C41.020443,80.668030 48.137318,74.749695 57.443985,74.747391 
	C58.771450,74.747063 60.098957,74.902969 61.813133,75.045319 
z"/>
<path fill="#080808" opacity="1.000000" stroke="none" 
	d="
M267.400452,61.925240 
	C273.340820,61.924889 278.823334,61.924889 286.260101,61.924889 
	C284.519531,64.438499 283.329773,65.935051 282.391052,67.575272 
	C281.468811,69.186707 280.160309,70.931519 280.126953,72.639397 
	C279.919312,83.271690 280.022339,93.910057 280.022339,104.897499 
	C281.557587,105.003174 282.954926,105.099358 284.653107,105.216248 
	C284.653107,107.128044 284.653107,108.851463 284.653107,110.797623 
	C278.066437,110.797623 271.485962,110.797623 262.968414,110.797623 
	C264.783783,108.283203 266.057281,106.885468 266.895630,105.262924 
	C267.883789,103.350372 269.118408,101.257317 269.164734,99.217964 
	C269.395203,89.067963 269.269989,78.909882 269.269989,68.340622 
	C267.995117,68.063080 266.481079,67.733475 264.601318,67.324249 
	C265.137054,65.339935 262.242981,62.257519 267.400452,61.925240 
z"/>
<path fill="#080808" opacity="1.000000" stroke="none" 
	d="
M214.647552,106.300072 
	C211.308914,108.151649 208.147659,110.885124 204.538727,111.749458 
	C196.380753,113.703293 191.497589,109.471687 191.050613,100.902191 
	C190.886124,97.748627 190.994217,94.580605 190.987076,91.419167 
	C190.980362,88.441002 190.985626,85.462799 190.985626,82.724617 
	C189.064423,82.042717 187.452682,81.470657 185.413742,80.706512 
	C184.989838,80.346245 184.993164,80.178078 184.996475,80.009903 
	C188.582764,75.614136 191.993942,71.053467 195.873398,66.933769 
	C196.895889,65.847954 199.365265,66.124626 201.639389,65.684929 
	C201.639389,69.381927 201.639389,72.331886 201.639389,75.691559 
	C204.589035,75.691559 207.191376,75.691559 210.005249,75.691559 
	C210.005249,77.866058 210.005249,79.625641 210.005249,81.669220 
	C207.191208,81.799110 204.594910,81.918953 201.432022,82.064949 
	C201.432022,87.233047 201.131973,92.201141 201.553879,97.107147 
	C201.777359,99.705757 203.255615,102.196449 204.167419,104.735870 
	C206.656662,103.826256 209.145889,102.916641 212.661804,101.631859 
	C213.050018,102.319092 213.981415,103.967888 214.737976,106.005478 
	C214.563171,106.394279 214.621719,106.333450 214.647552,106.300072 
z"/>
<path fill="#050505" opacity="1.000000" stroke="none" 
	d="
M185.051208,79.620712 
	C184.993164,80.178078 184.989838,80.346245 184.996704,80.766525 
	C183.825668,82.541092 182.760284,85.193138 181.436890,85.328827 
	C179.299026,85.548027 176.991394,84.111549 173.460602,82.947380 
	C165.412537,87.741379 170.966324,97.106133 168.586731,105.033226 
	C173.726196,104.395447 174.113098,106.978531 173.272980,110.689758 
	C167.282471,110.689758 161.216217,110.689758 153.915039,110.689758 
	C155.134903,108.553276 156.152939,107.023819 156.910110,105.374596 
	C157.707581,103.637566 158.738281,101.808289 158.822372,99.980446 
	C159.074081,94.509224 158.912888,89.019012 158.912888,83.098763 
	C157.475296,83.011444 156.099380,82.927872 154.485748,82.829865 
	C154.485748,81.035172 154.485748,79.440025 154.485748,77.661049 
	C159.021210,76.726639 163.633514,75.776398 168.649551,74.742981 
	C168.904770,76.411636 169.114700,77.784233 169.329407,79.161926 
	C174.602051,76.941620 179.893906,69.640518 185.051208,79.620712 
z"/>
<path fill="#F2F2F2" opacity="1.000000" stroke="none" 
	d="
M233.894653,81.922882 
	C234.528091,79.892349 235.057098,78.236366 235.901688,75.592476 
	C237.825836,81.140007 239.416962,85.727386 241.139954,90.694931 
	C237.655609,90.694931 234.456055,90.694931 230.860687,90.694931 
	C231.850357,87.858078 232.820297,85.077759 233.894653,81.922882 
z"/>
<path fill="#EEEEEE" opacity="1.000000" stroke="none" 
	d="
M129.088806,99.073227 
	C131.585510,97.397911 133.908524,96.043686 136.231537,94.689468 
	C136.693756,94.993538 137.155960,95.297607 137.618164,95.601669 
	C136.899857,98.207397 136.640213,101.103607 135.256760,103.288116 
	C134.628098,104.280815 131.602432,104.386780 130.004196,103.861015 
	C129.234650,103.607864 129.253342,100.958580 129.088806,99.073227 
z"/>
</svg>